<?xml version="1.0" encoding="utf-8"?>
<svg xmlns="http://www.w3.org/2000/svg" xmlns:xlink="http://www.w3.org/1999/xlink" style="margin: auto; background: rgba(0, 0, 0, 0) none repeat scroll 0% 0%; display: block; shape-rendering: auto;" width="284px" height="284px" viewBox="0 0 100 100" preserveAspectRatio="xMidYMid">
<g transform="rotate(0 50 50)">
  <rect x="47" y="23.5" rx="3" ry="6.5" width="6" height="13" fill="#fe718d">
    <animate attributeName="opacity" values="1;0" keyTimes="0;1" dur="1.4492753623188404s" begin="-1.328502415458937s" repeatCount="indefinite"></animate>
  </rect>
</g><g transform="rotate(30 50 50)">
  <rect x="47" y="23.5" rx="3" ry="6.5" width="6" height="13" fill="#f47e60">
    <animate attributeName="opacity" values="1;0" keyTimes="0;1" dur="1.4492753623188404s" begin="-1.2077294685990336s" repeatCount="indefinite"></animate>
  </rect>
</g><g transform="rotate(60 50 50)">
  <rect x="47" y="23.5" rx="3" ry="6.5" width="6" height="13" fill="#f8b26a">
    <animate attributeName="opacity" values="1;0" keyTimes="0;1" dur="1.4492753623188404s" begin="-1.0869565217391304s" repeatCount="indefinite"></animate>
  </rect>
</g><g transform="rotate(90 50 50)">
  <rect x="47" y="23.5" rx="3" ry="6.5" width="6" height="13" fill="#abbd81">
    <animate attributeName="opacity" values="1;0" keyTimes="0;1" dur="1.4492753623188404s" begin="-0.9661835748792269s" repeatCount="indefinite"></animate>
  </rect>
</g><g transform="rotate(120 50 50)">
  <rect x="47" y="23.5" rx="3" ry="6.5" width="6" height="13" fill="#849b87">
    <animate attributeName="opacity" values="1;0" keyTimes="0;1" dur="1.4492753623188404s" begin="-0.8454106280193235s" repeatCount="indefinite"></animate>
  </rect>
</g><g transform="rotate(150 50 50)">
  <rect x="47" y="23.5" rx="3" ry="6.5" width="6" height="13" fill="#6492ac">
    <animate attributeName="opacity" values="1;0" keyTimes="0;1" dur="1.4492753623188404s" begin="-0.7246376811594202s" repeatCount="indefinite"></animate>
  </rect>
</g><g transform="rotate(180 50 50)">
  <rect x="47" y="23.5" rx="3" ry="6.5" width="6" height="13" fill="#637cb5">
    <animate attributeName="opacity" values="1;0" keyTimes="0;1" dur="1.4492753623188404s" begin="-0.6038647342995168s" repeatCount="indefinite"></animate>
  </rect>
</g><g transform="rotate(210 50 50)">
  <rect x="47" y="23.5" rx="3" ry="6.5" width="6" height="13" fill="#6a63b6">
    <animate attributeName="opacity" values="1;0" keyTimes="0;1" dur="1.4492753623188404s" begin="-0.48309178743961345s" repeatCount="indefinite"></animate>
  </rect>
</g><g transform="rotate(240 50 50)">
  <rect x="47" y="23.5" rx="3" ry="6.5" width="6" height="13" fill="#fe718d">
    <animate attributeName="opacity" values="1;0" keyTimes="0;1" dur="1.4492753623188404s" begin="-0.3623188405797101s" repeatCount="indefinite"></animate>
  </rect>
</g><g transform="rotate(270 50 50)">
  <rect x="47" y="23.5" rx="3" ry="6.5" width="6" height="13" fill="#f47e60">
    <animate attributeName="opacity" values="1;0" keyTimes="0;1" dur="1.4492753623188404s" begin="-0.24154589371980673s" repeatCount="indefinite"></animate>
  </rect>
</g><g transform="rotate(300 50 50)">
  <rect x="47" y="23.5" rx="3" ry="6.5" width="6" height="13" fill="#f8b26a">
    <animate attributeName="opacity" values="1;0" keyTimes="0;1" dur="1.4492753623188404s" begin="-0.12077294685990336s" repeatCount="indefinite"></animate>
  </rect>
</g><g transform="rotate(330 50 50)">
  <rect x="47" y="23.5" rx="3" ry="6.5" width="6" height="13" fill="#abbd81">
    <animate attributeName="opacity" values="1;0" keyTimes="0;1" dur="1.4492753623188404s" begin="0s" repeatCount="indefinite"></animate>
  </rect>
</g>
<!-- [ldio] generated by https://loading.io/ --></svg>